<?xml version="1.0" encoding="utf-8"?>
<!-- Generator: Adobe Illustrator 25.0.1, SVG Export Plug-In . SVG Version: 6.00 Build 0)  -->
<svg version="1.1" id="Layer_1" xmlns="http://www.w3.org/2000/svg" xmlns:xlink="http://www.w3.org/1999/xlink" x="0px" y="0px"
	 viewBox="0 0 135 35" style="enable-background:new 0 0 135 35;" xml:space="preserve">
<style type="text/css">
	.st0{font-family:'Impact';}
	.st1{font-size:40.1986px;}
	.st2{font-size:17.9057px;}
</style>
<g>
	<path d="M6.48,29.03c0.18,0.09,0.36,0.16,0.53,0.27c0.41,0.26,0.79,0.6,1.24,0.78c0.25,0.1,0.6-0.04,0.91-0.07
		c0.01-0.04,0.01-0.08,0.02-0.13c-0.17-0.15-0.34-0.31-0.42-0.38c0.44-0.99,0.83-1.95,1.27-2.87c0.89-1.84,2.06-3.51,3.36-5.09
		c0.15-0.18,0.27-0.39,0.37-0.6c0.65-1.48,1.28-2.97,1.94-4.45c0.12-0.27,0.14-0.43-0.15-0.61c-0.55-0.36-0.7-0.96-0.68-1.57
		c0.06-1.43,0.37-2.83,0.83-4.18c0.11-0.32,0.48-0.57,0.77-0.8c0.29-0.24,0.66-0.39,0.74-0.85c-0.69-0.05-1.36-0.04-2.01-0.15
		c-0.56-0.09-1.13-0.25-1.65-0.49c-0.68-0.32-0.68-0.93-0.06-1.35c0.77-0.51,1.65-0.74,2.54-0.89c0.23-0.04,0.38-0.12,0.47-0.38
		c0.22-0.64,0.48-1.27,0.77-1.88c0.24-0.52,0.54-1.01,0.78-1.47c0.67,1.04,1.39,2.14,2.15,3.31c0.58,0.07,1.32,0.13,2.05,0.24
		c0.36,0.06,0.72,0.18,1.05,0.34c0.52,0.26,0.62,0.72,0.16,1.06c-0.5,0.37-1.09,0.63-1.68,0.87c-0.38,0.16-0.8,0.21-1.21,0.27
		c-0.25,0.04-0.38,0.12-0.49,0.36c-0.48,1.15-0.49,1.15-1.79,0.89c0.1,0.22,0.17,0.37,0.25,0.52c0.22,0.42,0.48,0.81,0.65,1.25
		c0.25,0.65,0.44,1.32,0.67,1.98c0.16,0.47,0.18,0.91-0.05,1.38c-0.09,0.19-0.06,0.51,0.05,0.69c0.27,0.46,0.6,0.88,0.94,1.3
		c0.33,0.42,0.69,0.82,1.05,1.22c0.29,0.32,0.57,0.62,1.08,0.7c0.35,0.05,0.84,0.15,0.95,0.68c0.01,0.06,0.29,0.08,0.44,0.08
		c0.73,0.01,0.73,0.01,0.95,0.7c0.13,0.41,0.24,0.82,0.36,1.24c1.37,0,2.72,0,4.12,0c0.24-1.26,0.48-2.51,0.72-3.76
		c0.12-0.62,0.11-0.62-0.29-0.96c0.17-0.21,0.33-0.43,0.49-0.64c0.14,0.19,0.3,0.4,0.42,0.55c-0.14,0.28-0.35,0.56-0.42,0.87
		c-0.28,1.29-0.51,2.59-0.76,3.93c0.37,0,0.72,0,1.16,0c-0.51,0.8-0.52,1.62-0.48,2.45c0.01,0.36,0.13,0.55,0.52,0.56
		c0.6,0.01,1.19,0.06,1.79,0.09l0-0.01c-1.31,3.31-3.42,5.96-6.46,7.84c-3.27,2.02-6.81,2.69-10.6,2.13c-2.63-0.39-4.96-1.45-7.11-3
		c-0.34-0.24-0.77-0.36-1.08-0.5c-0.06-0.18-0.08-0.32-0.15-0.41c-0.32-0.37-0.67-0.72-1-1.08C6.49,29.02,6.48,29.03,6.48,29.03z
		 M9.91,31.03c0.01,0.05,0.03,0.1,0.04,0.15c0.09,0,0.17,0.01,0.26,0.01c0.03,0.06,0.06,0.12,0.09,0.18
		c0.07,0.02,0.15,0.03,0.22,0.05c0.1,0.02,0.19,0.04,0.29,0.06c0.03,0.04,0.05,0.11,0.09,0.12c0.92,0.27,1.84,0.54,2.76,0.8
		c0.05,0.01,0.11-0.02,0.15-0.03c-1.01-0.29-2.01-0.59-3.01-0.88c-0.1-0.02-0.19-0.04-0.29-0.06c-0.08-0.02-0.15-0.03-0.23-0.05
		c-0.03-0.06-0.06-0.12-0.09-0.17c-0.08,0-0.17-0.01-0.25-0.02C9.93,31.13,9.92,31.09,9.91,31.03L9.9,31.04
		C9.9,31.04,9.91,31.03,9.91,31.03z M10.85,31.35c0,0,0.01,0,0.01-0.01c-0.01,0-0.02,0-0.03,0C10.84,31.35,10.85,31.35,10.85,31.35z
		 M10.68,31.09c0.97,0.23,1.94,0.45,2.9,0.68c-0.11-0.16-0.24-0.27-0.4-0.32c-0.39-0.14-0.38-0.35-0.14-0.62
		c0.13-0.16,0.26-0.32,0.45-0.55c-0.29,0.02-0.47,0.04-0.64,0.04c-0.75,0-1.5,0.05-2.25-0.02c-0.39-0.03-0.62,0.01-0.7,0.41
		c0.14,0.09,0.28,0.17,0.42,0.25l0.01-0.02l-0.02,0.01c0.12,0.04,0.24,0.08,0.36,0.12c-0.01,0-0.02,0.01-0.03,0.01
		c-0.01,0-0.02-0.01-0.03-0.02C10.64,31.08,10.66,31.09,10.68,31.09z M19.18,25.14c-0.93,0.92-1.41,2.07-1.61,3.34
		c-0.08,0.5-0.07,1.01-0.13,1.51c-0.06,0.47-0.34,0.69-0.77,0.55c-0.54-0.17-1.05-0.09-1.57,0.01c-0.64,0.12-0.73,0.23-0.61,0.93
		c0.21,0,0.43,0.01,0.65,0c1.26-0.09,2.43-0.52,3.58-1.01c0.78-0.33,0.77-0.35,0.68-1.21c-0.02-0.18-0.04-0.35-0.06-0.53
		c-0.16-1.19-0.45-2.37-0.14-3.57c0.01-0.02,0.03-0.03,0.04-0.05C19.21,25.12,19.2,25.13,19.18,25.14z M20.13,29.64
		c0.05,0.02,0.1,0.04,0.15,0.06c1.61-1,2.85-2.32,3.61-4.09c0.88-2.06,0.42-4.04-0.33-6c-0.04-0.1-0.23-0.2-0.35-0.19
		c-0.37,0.03-0.61-0.13-0.83-0.41c-0.16-0.19-0.39-0.32-0.59-0.48c-0.77-0.6-1.55-1.2-2.31-1.81c-0.28-0.22-0.52-0.49-0.81-0.77
		c-0.07,0.72,0.11,1.35,0.33,1.98c0.62,1.8,1.23,3.61,1.89,5.4c0.15,0.41,0.17,0.74,0.09,1.17C20.65,26.21,20.4,27.93,20.13,29.64z
		 M21.21,31.81c2.68,0.04,7.34-4.39,7.1-6.74C27.21,28.65,24.62,30.66,21.21,31.81z M25.3,20.91c-0.11-0.46-0.22-0.91-0.34-1.34
		c-0.03-0.1-0.12-0.24-0.19-0.24c-0.31-0.03-0.63-0.01-0.97-0.01c0.12,0.37,0.21,0.65,0.3,0.93c0.24,0.78,0.24,0.78,1.06,0.72
		C25.18,20.96,25.21,20.94,25.3,20.91z M25.28,24.41c-0.53,2.92-2.38,4.71-4.97,5.89C22.42,30.19,25.2,26.91,25.28,24.41z
		 M18.99,30.99c-0.73,0.18-1.45,0.4-2.18,0.54c-0.73,0.14-1.47,0.21-2.2,0.32c0.01,0.04,0.02,0.08,0.02,0.12
		C16.13,31.88,17.6,31.59,18.99,30.99z M27.95,28.83c0.75-0.72,1.24-1.6,1.49-2.61C28.94,27.09,28.44,27.96,27.95,28.83z
		 M29.52,22.9c0-0.27,0-0.48,0-0.67c-0.22,0-0.4,0-0.57,0c0,0.25,0,0.46,0,0.67C29.16,22.9,29.33,22.9,29.52,22.9z M26.93,22.92
		c0-0.21,0-0.4,0-0.62c-0.22,0-0.43,0-0.67,0c0.01,0.22,0.02,0.42,0.03,0.62C26.52,22.92,26.71,22.92,26.93,22.92z M27.81,21.37
		c-0.25,0-0.45,0-0.67,0c0.02,0.22,0.04,0.4,0.06,0.6c0.21,0,0.38,0,0.58,0C27.78,21.78,27.79,21.59,27.81,21.37z M20.01,32.26
		c-0.01-0.06-0.02-0.12-0.03-0.18c-0.9,0.14-1.8,0.28-2.71,0.42c0.01,0.05,0.02,0.1,0.02,0.15C18.2,32.52,19.11,32.39,20.01,32.26z
		 M28.04,22.91c0.23,0,0.41,0,0.62,0c0-0.22,0-0.41,0-0.62c-0.21,0-0.41,0-0.62,0C28.04,22.49,28.04,22.68,28.04,22.91z
		 M27.75,23.82c0-0.2,0-0.4,0-0.6c-0.2,0-0.4,0-0.58,0c0,0.22,0,0.4,0,0.6C27.38,23.82,27.55,23.82,27.75,23.82z M28.05,23.8
		c0.22,0,0.41,0,0.6,0c0-0.21,0-0.4,0-0.59c-0.21,0-0.39,0-0.6,0C28.05,23.42,28.05,23.59,28.05,23.8z M26.05,22.3
		c-0.23,0-0.41,0-0.6,0c0,0.21,0,0.4,0,0.6c0.21,0,0.39,0,0.6,0C26.05,22.7,26.05,22.51,26.05,22.3z M24.49,21.39
		c0.03,0.45,0.1,0.79,0.66,0.6c0-0.19,0-0.39,0-0.6C24.92,21.39,24.72,21.39,24.49,21.39z M25.44,22.01
		c0.66-0.05,0.68-0.08,0.58-0.65c-0.19,0.01-0.39,0.03-0.58,0.04C25.44,21.63,25.44,21.8,25.44,22.01z M29.55,21.92
		c0.02-0.19,0.04-0.36,0.06-0.52c-0.24,0-0.44,0-0.65,0c0,0.21,0,0.39,0,0.6C29.16,21.97,29.34,21.95,29.55,21.92z M26.88,23.24
		c-0.22-0.01-0.41-0.02-0.59-0.04c0,0.22,0,0.42,0,0.59c0.22,0,0.4,0,0.59,0C26.88,23.6,26.88,23.44,26.88,23.24z M26.28,21.39
		c0,0.2,0,0.39,0,0.58c0.22-0.01,0.41-0.03,0.61-0.04c0-0.2,0-0.36,0-0.54C26.67,21.39,26.47,21.39,26.28,21.39z M27.22,22.27
		c0,0.22,0,0.43,0,0.62c0.2,0,0.38,0,0.58,0c-0.01-0.23-0.02-0.43-0.03-0.62C27.57,22.27,27.41,22.27,27.22,22.27z M29.5,23.21
		c-0.18,0-0.37,0-0.57,0c0.01,0.22,0.02,0.41,0.03,0.6c0.18,0,0.35,0,0.54,0C29.5,23.61,29.5,23.44,29.5,23.21z M28.65,21.39
		c-0.2,0-0.4,0-0.6,0c0,0.19,0,0.38,0,0.56c0.21,0,0.39,0,0.6,0C28.65,21.76,28.65,21.59,28.65,21.39z M26.07,23.25
		c-0.23,0-0.42,0-0.63,0c0,0.19,0,0.36,0,0.54c0.2,0,0.38,0,0.58,0C26.05,23.61,26.06,23.45,26.07,23.25z M30.34,21.4
		c-0.48-0.1-0.56,0.13-0.5,0.5C30.38,21.98,30.39,21.97,30.34,21.4z M25.17,22.38c-0.18,0-0.35,0-0.52,0
		c0.01,0.2,0.02,0.36,0.03,0.55c0.18-0.01,0.34-0.02,0.49-0.03C25.17,22.71,25.17,22.55,25.17,22.38z M29.81,23.19
		c0,0.22,0,0.41,0,0.62c0.15,0,0.29,0,0.46,0c-0.01-0.22-0.02-0.41-0.03-0.62C30.08,23.19,29.97,23.19,29.81,23.19z M29.82,22.89
		c0.13,0,0.25,0,0.37,0c0.02-0.25,0.05-0.46,0.07-0.68c-0.17,0.01-0.3,0.01-0.44,0.02C29.82,22.47,29.82,22.68,29.82,22.89z
		 M24.67,23.28c0,0.19,0,0.36,0,0.53c0.17,0,0.31,0,0.47,0c0-0.18,0-0.35,0-0.53C25,23.28,24.86,23.28,24.67,23.28z M15.95,32.55
		c0-0.02,0-0.05,0-0.07c-0.4,0-0.8,0-1.21,0c0,0.02,0,0.05,0,0.07C15.14,32.55,15.55,32.55,15.95,32.55z"/>
	<path d="M11.59,5.25c-0.1-1.1-0.75-1.57-1.77-1.7c1.1-0.22,1.67-0.88,1.77-1.99c0.17,1.07,0.68,1.79,1.83,1.93
		C12.42,3.67,11.74,4.16,11.59,5.25z"/>
	<path d="M8.01,10.85C7.83,9.9,7.57,9.63,6.8,9.44C7.55,9.28,7.89,8.77,8,8.03C8.14,8.37,8.2,8.7,8.39,8.92
		c0.19,0.22,0.49,0.35,0.77,0.53C8.5,9.58,8.12,10.03,8.01,10.85z"/>
	<path d="M33.87,11.23c0.14,0.75,0.32,0.96,1.11,1.3c-0.66,0.12-0.98,0.53-1.13,1.17c-0.12-0.65-0.47-1.05-1.13-1.17
		C33.44,12.38,33.78,11.92,33.87,11.23z"/>
	<path d="M24.23,1.15c0.12,0.6,0.35,1.09,1.03,1.23c-0.7,0.14-0.94,0.61-1.04,1.25c-0.11-0.68-0.48-1.08-1.29-1.22
		C23.76,2.27,24.11,1.82,24.23,1.15z"/>
	<path d="M30.57,5.81c0.09,0.57,0.35,0.98,0.97,1.12c-0.69,0.3-0.74,0.36-0.97,1.12c-0.1-0.57-0.38-0.97-1.07-1.1
		C30.15,6.77,30.47,6.4,30.57,5.81z"/>
	<path d="M25.72,4.66c-0.21,0.13-0.41,0.27-0.62,0.4c0.08,0.07,0.16,0.14,0.24,0.21c-0.16-0.18-0.31-0.35-0.46-0.53
		c0.13-0.14,0.3-0.32,0.47-0.5c0.13,0.15,0.29,0.34,0.46,0.52C25.78,4.73,25.75,4.69,25.72,4.66z"/>
	<path d="M4.48,9.49c-0.16,0.2-0.32,0.38-0.46,0.55c-0.13-0.15-0.3-0.34-0.45-0.52C3.73,9.34,3.9,9.16,4.05,8.99
		C4.19,9.15,4.35,9.33,4.48,9.49z"/>
	<path d="M6.18,14.51C6.05,14.67,5.9,14.85,5.78,15c-0.14-0.15-0.3-0.32-0.45-0.49c0.14-0.15,0.3-0.32,0.46-0.49
		C5.91,14.18,6.04,14.34,6.18,14.51z"/>
	<path d="M8.9,4.28C9.02,4.43,9.16,4.6,9.28,4.77C9.15,4.91,9,5.09,8.87,5.24C8.74,5.1,8.59,4.93,8.44,4.77
		C8.58,4.62,8.74,4.45,8.9,4.28z"/>
	<path d="M27.58,11.52c0.06-0.07,0.17-0.19,0.28-0.32c0.08,0.09,0.19,0.2,0.31,0.32c-0.1,0.11-0.22,0.24-0.33,0.36
		c0.03-0.03,0.07-0.06,0.1-0.09C27.8,11.69,27.67,11.59,27.58,11.52z"/>
	<path d="M33.45,16.42c0.09-0.11,0.19-0.24,0.3-0.37c0.1,0.13,0.2,0.25,0.3,0.38c-0.1,0.12-0.22,0.25-0.31,0.36
		C33.65,16.68,33.56,16.56,33.45,16.42z"/>
	<path d="M4.81,6.21c0.12,0.13,0.21,0.23,0.32,0.35c-0.1,0.09-0.22,0.19-0.34,0.3C4.71,6.76,4.61,6.67,4.52,6.57
		C4.61,6.45,4.7,6.34,4.81,6.21z"/>
	<path d="M31.86,23.93c0.37-0.12,0.74-0.24,1.11-0.36c0.01,0.05,0.03,0.1,0.04,0.15c-0.38,0.1-0.75,0.2-1.13,0.29
		C31.87,23.99,31.86,23.96,31.86,23.93z"/>
	<path d="M6.44,28.86c0-0.01-0.01-0.02-0.01-0.03c-0.01,0.01-0.01,0.03-0.02,0.04C6.42,28.87,6.43,28.87,6.44,28.86
		C6.43,28.87,6.44,28.86,6.44,28.86z"/>
	<path d="M6.49,29.02c-0.02-0.05-0.04-0.1-0.06-0.16c0,0,0,0.01,0,0.01c0.02,0.05,0.03,0.11,0.05,0.16
		C6.48,29.03,6.49,29.02,6.49,29.02z"/>
	<path d="M32.9,24.04c-0.01-0.01-0.01-0.02-0.02-0.03C32.89,24.02,32.89,24.02,32.9,24.04C32.9,24.03,32.9,24.04,32.9,24.04z"/>
</g>
<text transform="matrix(1 0 0 1 40.3828 33.9873)" class="st0 st1">W</text>
<text transform="matrix(1 0 0 1 74.1699 16.6348)" class="st0 st2">ardrobe</text>
<text transform="matrix(1 0 0 1 74.0032 34.2021)" class="st0 st2">iz</text>
</svg>
